# xmcd
#
# Track frame offsets:
#	150
#	2308
#	20959
#	39035
#	60588
#	74072
#	96635
#	118770
#	133113
#	155668
#	181715
#
# Disc length: 2614 seconds
#
# Revision: 0
# Processed by: cddbd v1.5.2PL0 Copyright (c) Steve Scherf et al.
# Submitted via: EasyCDDAExtractor 2010.6.0.0
#
DISCID=940a340b
DTITLE=The Tell Alls - Feeding Frenzy
DYEAR=1900
DGENRE=
TTITLE0=Intro
TTITLE1=Start a Commotion
TTITLE2=Ashley's Song (Live For Today)
TTITLE3=Can't Forget
TTITLE4=Stitch in Time
TTITLE5=Through a Veil
TTITLE6=The BIG Time
TTITLE7=Riches of the World
TTITLE8=In The End
TTITLE9=Sinister Song
TTITLE10=By Your Side
EXTD=
EXTT0=
EXTT1=
EXTT2=
EXTT3=
EXTT4=
EXTT5=
EXTT6=
EXTT7=
EXTT8=
EXTT9=
EXTT10=
PLAYORDER=
